<svg width="300" height="84" viewBox="0 0 300 84" fill="none" xmlns="http://www.w3.org/2000/svg">
<path d="M109.951 58.1113H117.832V44.6008H121.259L129.629 58.1113H138.049L128.797 43.2303C132.909 42.0065 135.993 39.2162 135.993 33.9295V33.7337C135.993 26.489 130.755 23.1113 122.483 23.1113H109.951V58.1113ZM117.832 39.2162V29.1813H122.287C126.105 29.1813 128.259 30.4051 128.259 33.9784V34.1743C128.259 37.552 126.252 39.2162 122.287 39.2162H117.832Z" fill="#CDCDCD"/>
<path d="M151.544 60.1113C158.615 60.1113 163.066 56.996 163.907 51.408H157.132C156.687 53.5839 155.055 55.018 151.742 55.018C147.835 55.018 145.511 52.5454 145.313 48.2433H163.956V46.2652C163.956 37.0178 158.022 33.1113 151.346 33.1113C143.83 33.1113 138.044 38.4025 138.044 46.5619V46.9574C138.044 55.2158 143.731 60.1113 151.544 60.1113ZM145.412 43.8421C145.956 40.1827 148.132 38.0564 151.346 38.0564C154.758 38.0564 156.736 39.9355 156.984 43.8421H145.412Z" fill="#CDCDCD"/>
<path d="M168.089 57.1113H174.911V21.1113H168.089V57.1113Z" fill="#CDCDCD"/>
<path d="M189.163 60.1113C193.512 60.1113 196.191 58.0888 197.556 55.4092V59.5552H204.837V33.1113H197.556V48.6338C197.556 52.5272 195.129 54.4485 192.046 54.4485C188.911 54.4485 187.443 52.7293 187.443 49.1394V33.1113H180.163V50.1507C180.163 57.0776 184.006 60.1113 189.163 60.1113Z" fill="#CDCDCD"/>
<path d="M209.084 59.1113H216.132V44.0945C216.132 40.6441 218.319 38.8944 221.04 38.8944C223.519 38.8944 225.025 40.3524 225.025 43.6086V59.1113H232.024V44.0945C232.024 40.6441 234.21 38.8944 236.931 38.8944C239.459 38.8944 240.917 40.3524 240.917 43.6086V59.1113H247.915V42.831C247.915 36.0758 244.271 33.1113 239.556 33.1113C236.349 33.1113 233.045 34.472 231.003 37.5338C229.788 34.5207 227.261 33.1113 223.908 33.1113C220.116 33.1113 217.395 35.201 216.132 37.5823V33.6944H209.084V59.1113Z" fill="#CDCDCD"/>
<path d="M265.544 60.1113C272.616 60.1113 277.067 56.996 277.906 51.408H271.132C270.686 53.5839 269.055 55.018 265.741 55.018C261.835 55.018 259.511 52.5454 259.314 48.2433H277.957V46.2652C277.957 37.0178 272.021 33.1113 265.346 33.1113C257.829 33.1113 252.043 38.4025 252.043 46.5619V46.9574C252.043 55.2158 257.731 60.1113 265.544 60.1113ZM259.412 43.8421C259.957 40.1827 262.133 38.0564 265.346 38.0564C268.758 38.0564 270.737 39.9355 270.985 43.8421H259.412Z" fill="#CDCDCD"/>
<path fill-rule="evenodd" clip-rule="evenodd" d="M82.1818 25.5193L81.7058 24.6693C81.092 23.6414 80.2261 22.7871 79.19 22.1873L56.376 9.02933C55.3429 8.4301 54.1703 8.11348 52.976 8.11133H51.99C50.7957 8.11348 49.6231 8.4301 48.59 9.02933L25.7761 22.2213C24.7458 22.8171 23.89 23.6731 23.2941 24.7033L22.8181 25.5533C22.2189 26.5863 21.9023 27.759 21.9001 28.9532V55.3032C21.9023 56.4975 22.2189 57.6701 22.8181 58.7032L23.2941 59.5532C23.9054 60.5715 24.7578 61.4239 25.7761 62.0352L48.624 75.193C49.652 75.8047 50.828 76.1223 52.024 76.111H52.976C54.1703 76.1089 55.3429 75.7923 56.376 75.193L79.19 62.0012C80.2304 61.4187 81.0895 60.5598 81.6718 59.5192L82.1818 58.6692C82.7739 57.6331 83.0901 56.4623 83.0998 55.2692V28.9192C83.0979 27.725 82.7812 26.5523 82.1818 25.5193ZM51.99 14.9112H52.976L72.9 26.4032L52.5 38.167L32.1002 26.4032L51.99 14.9112ZM55.9 67.6114L75.7898 56.1194L76.2998 55.2693V32.2855L55.9 44.0833V67.6114Z" fill="#CDCDCD"/>
</svg>
