<svg width="25" height="24" viewBox="0 0 25 24" fill="none" xmlns="http://www.w3.org/2000/svg">
<path d="M4.80775 19.5C4.30258 19.5 3.875 19.325 3.525 18.975C3.175 18.625 3 18.1974 3 17.6923V6.30775C3 5.80258 3.175 5.375 3.525 5.025C3.875 4.675 4.30258 4.5 4.80775 4.5H20.1923C20.6974 4.5 21.125 4.675 21.475 5.025C21.825 5.375 22 5.80258 22 6.30775V17.6923C22 18.1974 21.825 18.625 21.475 18.975C21.125 19.325 20.6974 19.5 20.1923 19.5H4.80775ZM12.5 12.5577L4.5 7.44225V17.6923C4.5 17.7821 4.52883 17.8558 4.5865 17.9135C4.64417 17.9712 4.71792 18 4.80775 18H20.1923C20.2821 18 20.3558 17.9712 20.4135 17.9135C20.4712 17.8558 20.5 17.7821 20.5 17.6923V7.44225L12.5 12.5577ZM12.5 11L20.3463 6H4.65375L12.5 11ZM4.5 7.44225V6V17.6923C4.5 17.7821 4.52883 17.8558 4.5865 17.9135C4.64417 17.9712 4.71792 18 4.80775 18H4.5V7.44225Z" fill="#D8A47A"/>
</svg>
