<svg width="36" height="35" viewBox="0 0 36 35" fill="none" xmlns="http://www.w3.org/2000/svg">
<path d="M5.07084 29.1892C4.66381 29.1892 4.32263 29.0515 4.04729 28.7762C3.77195 28.5008 3.63428 28.1596 3.63428 27.7526C3.63428 27.5132 3.68216 27.2917 3.77793 27.0882C3.8737 26.8847 4.01736 26.7231 4.2089 26.6034L16.5633 17.3376V14.8236C16.5633 14.4166 16.707 14.0754 16.9943 13.8C17.2816 13.5247 17.6288 13.387 18.0358 13.387C18.6343 13.387 19.1371 13.1715 19.5442 12.7406C19.9512 12.3096 20.1547 11.7948 20.1547 11.1963C20.1547 10.5977 19.9452 10.0949 19.5262 9.68788C19.1072 9.28085 18.5984 9.07734 17.9999 9.07734C17.4013 9.07734 16.8925 9.28684 16.4735 9.70584C16.0545 10.1248 15.845 10.6336 15.845 11.2322H12.9719C12.9719 9.84351 13.4627 8.65835 14.4444 7.6767C15.426 6.69505 16.6112 6.20422 17.9999 6.20422C19.3885 6.20422 20.5737 6.68906 21.5554 7.65874C22.537 8.62842 23.0278 9.80759 23.0278 11.1963C23.0278 12.3216 22.6986 13.3272 22.0402 14.213C21.3818 15.0989 20.5138 15.7095 19.4364 16.0447V17.3376L31.7908 26.6034C31.9824 26.7231 32.126 26.8847 32.2218 27.0882C32.3176 27.2917 32.3655 27.5132 32.3655 27.7526C32.3655 28.1596 32.2278 28.5008 31.9524 28.7762C31.6771 29.0515 31.3359 29.1892 30.9289 29.1892H5.07084ZM9.38051 26.3161H26.6192L17.9999 19.8515L9.38051 26.3161Z" fill="#D8A47A"/>
</svg>
