<svg width="32" height="32" viewBox="0 0 32 32" fill="none" xmlns="http://www.w3.org/2000/svg">
<g clip-path="url(#clip0_40_1466)">
<path d="M16.0001 8.03345C11.6073 8.03345 8.03345 11.6072 8.03345 15.9999C8.03345 20.3927 11.6073 23.9664 16.0001 23.9664C20.393 23.9664 23.9668 20.3927 23.9668 15.9999C23.9668 11.6072 20.393 8.03345 16.0001 8.03345ZM16.0001 22.0914C12.6412 22.0914 9.90845 19.3588 9.90845 15.9999C9.90845 12.6411 12.6412 9.90845 16.0001 9.90845C19.3591 9.90845 22.0918 12.6411 22.0918 15.9999C22.0918 19.3588 19.3591 22.0914 16.0001 22.0914Z" fill="#D8A47A"/>
<path d="M23.5312 0H8.46875C3.79906 0 0 3.79906 0 8.46875V23.5312C0 28.2009 3.79906 32 8.46875 32H23.5312C28.2009 32 32 28.2009 32 23.5312V8.46875C32 3.79906 28.2009 0 23.5312 0ZM30.125 23.5312C30.125 27.1671 27.1671 30.125 23.5312 30.125H8.46875C4.83294 30.125 1.875 27.1671 1.875 23.5312V8.46875C1.875 4.83294 4.83294 1.875 8.46875 1.875H23.5312C27.1671 1.875 30.125 4.83294 30.125 8.46875V23.5312Z" fill="#D8A47A"/>
<path d="M24.9126 6.15002C24.6657 6.15002 24.4245 6.25002 24.2501 6.42502C24.0751 6.5994 23.9751 6.84065 23.9751 7.08752C23.9751 7.3344 24.0752 7.57627 24.2501 7.75065C24.4245 7.92502 24.6657 8.02502 24.9126 8.02502C25.1595 8.02502 25.4013 7.92502 25.5757 7.75065C25.7501 7.57627 25.8501 7.3344 25.8501 7.08752C25.8501 6.84127 25.7501 6.5994 25.5757 6.42502C25.4013 6.25002 25.1595 6.15002 24.9126 6.15002Z" fill="#D8A47A"/>
</g>
<defs>
<clipPath id="clip0_40_1466">
<rect width="32" height="32" fill="white"/>
</clipPath>
</defs>
</svg>
