<svg width="40" height="40" viewBox="0 0 40 40" fill="none" xmlns="http://www.w3.org/2000/svg">
<path d="M8.41666 33.3334V30.5555H31.5833V33.3334H8.41666ZM8.38875 27.3888L6.20833 13.653C6.09722 13.6899 5.98847 13.7153 5.88208 13.7292C5.77541 13.7431 5.66652 13.75 5.55541 13.75C4.93513 13.75 4.40972 13.5348 3.97916 13.1042C3.54861 12.6737 3.33333 12.1482 3.33333 11.528C3.33333 10.9074 3.54861 10.3773 3.97916 9.93754C4.40972 9.49782 4.93513 9.27796 5.55541 9.27796C6.17597 9.27796 6.70611 9.49782 7.14583 9.93754C7.58555 10.3773 7.80541 10.9074 7.80541 11.528C7.80541 11.7407 7.77541 11.9491 7.71541 12.153C7.65513 12.3566 7.56944 12.5371 7.45833 12.6946L13.3054 15.3055L18.9583 7.54171C18.5972 7.35643 18.3056 7.08796 18.0833 6.73629C17.8611 6.38435 17.75 5.99074 17.75 5.55546C17.75 4.93518 17.9699 4.40976 18.4096 3.97921C18.8496 3.54865 19.3797 3.33337 20 3.33337C20.6203 3.33337 21.1504 3.54865 21.5904 3.97921C22.0301 4.40976 22.25 4.93518 22.25 5.55546C22.25 5.99074 22.1389 6.38435 21.9167 6.73629C21.6944 7.08796 21.4028 7.35643 21.0417 7.54171L26.6946 15.3055L32.5417 12.6946C32.4306 12.5371 32.3449 12.3566 32.2846 12.153C32.2246 11.9491 32.1946 11.7407 32.1946 11.528C32.1946 10.9074 32.4144 10.3773 32.8542 9.93754C33.2939 9.49782 33.8147 9.27796 34.4167 9.27796C35.0369 9.27796 35.5671 9.49782 36.0071 9.93754C36.4468 10.3773 36.6667 10.9074 36.6667 11.528C36.6667 12.1482 36.4468 12.6737 36.0071 13.1042C35.5671 13.5348 35.0369 13.75 34.4167 13.75C34.3056 13.75 34.2014 13.7385 34.1042 13.7155C34.0069 13.6921 33.9028 13.662 33.7917 13.625L31.6112 27.3888H8.38875ZM10.75 24.6113H29.25L30.5 16.653L25.7637 18.7638L20 10.8055L14.2362 18.7638L9.5 16.653L10.75 24.6113Z" fill="#D8A47A"/>
</svg>
