<svg width="84" height="40" viewBox="0 0 84 40" fill="none" xmlns="http://www.w3.org/2000/svg">
<path d="M2.656 31.5V9.1H7.84V27.276H19.072V31.5H2.656ZM29.7148 31.756C27.8801 31.756 26.2481 31.372 24.8188 30.604C23.4108 29.836 22.2908 28.7907 21.4588 27.468C20.6481 26.124 20.2428 24.5987 20.2428 22.892C20.2428 21.164 20.6481 19.6387 21.4588 18.316C22.2908 16.972 23.4108 15.9267 24.8188 15.18C26.2481 14.412 27.8801 14.028 29.7148 14.028C31.5281 14.028 33.1494 14.412 34.5788 15.18C36.0081 15.9267 37.1281 16.9613 37.9388 18.284C38.7494 19.6067 39.1548 21.1427 39.1548 22.892C39.1548 24.5987 38.7494 26.124 37.9388 27.468C37.1281 28.7907 36.0081 29.836 34.5788 30.604C33.1494 31.372 31.5281 31.756 29.7148 31.756ZM29.7148 27.66C30.5468 27.66 31.2934 27.468 31.9548 27.084C32.6161 26.7 33.1388 26.156 33.5228 25.452C33.9068 24.7267 34.0988 23.8733 34.0988 22.892C34.0988 21.8893 33.9068 21.036 33.5228 20.332C33.1388 19.628 32.6161 19.084 31.9548 18.7C31.2934 18.316 30.5468 18.124 29.7148 18.124C28.8828 18.124 28.1361 18.316 27.4748 18.7C26.8134 19.084 26.2801 19.628 25.8748 20.332C25.4908 21.036 25.2988 21.8893 25.2988 22.892C25.2988 23.8733 25.4908 24.7267 25.8748 25.452C26.2801 26.156 26.8134 26.7 27.4748 27.084C28.1361 27.468 28.8828 27.66 29.7148 27.66ZM50.5875 37.964C48.9662 37.964 47.3982 37.7613 45.8835 37.356C44.3902 36.972 43.1422 36.3853 42.1395 35.596L44.1235 32.012C44.8488 32.6093 45.7662 33.0787 46.8755 33.42C48.0062 33.7827 49.1155 33.964 50.2035 33.964C51.9742 33.964 53.2542 33.5693 54.0435 32.78C54.8542 31.9907 55.2595 30.8173 55.2595 29.26V26.668L55.5795 22.348L55.5155 17.996V14.284H60.2515V28.62C60.2515 31.82 59.4195 34.1773 57.7555 35.692C56.0915 37.2067 53.7022 37.964 50.5875 37.964ZM49.8195 30.668C48.2195 30.668 46.7688 30.3267 45.4675 29.644C44.1875 28.94 43.1528 27.9693 42.3635 26.732C41.5955 25.4733 41.2115 24.012 41.2115 22.348C41.2115 20.6627 41.5955 19.2013 42.3635 17.964C43.1528 16.7053 44.1875 15.7347 45.4675 15.052C46.7688 14.3693 48.2195 14.028 49.8195 14.028C51.2702 14.028 52.5502 14.3267 53.6595 14.924C54.7688 15.5 55.6328 16.4067 56.2515 17.644C56.8702 18.86 57.1795 20.428 57.1795 22.348C57.1795 24.2467 56.8702 25.8147 56.2515 27.052C55.6328 28.268 54.7688 29.1747 53.6595 29.772C52.5502 30.3693 51.2702 30.668 49.8195 30.668ZM50.8115 26.572C51.6862 26.572 52.4648 26.4013 53.1475 26.06C53.8302 25.6973 54.3635 25.196 54.7475 24.556C55.1315 23.916 55.3235 23.18 55.3235 22.348C55.3235 21.4947 55.1315 20.7587 54.7475 20.14C54.3635 19.5 53.8302 19.0093 53.1475 18.668C52.4648 18.3053 51.6862 18.124 50.8115 18.124C49.9368 18.124 49.1582 18.3053 48.4755 18.668C47.7928 19.0093 47.2488 19.5 46.8435 20.14C46.4595 20.7587 46.2675 21.4947 46.2675 22.348C46.2675 23.18 46.4595 23.916 46.8435 24.556C47.2488 25.196 47.7928 25.6973 48.4755 26.06C49.1582 26.4013 49.9368 26.572 50.8115 26.572ZM73.0898 31.756C71.2551 31.756 69.6231 31.372 68.1938 30.604C66.7858 29.836 65.6658 28.7907 64.8338 27.468C64.0231 26.124 63.6178 24.5987 63.6178 22.892C63.6178 21.164 64.0231 19.6387 64.8338 18.316C65.6658 16.972 66.7858 15.9267 68.1938 15.18C69.6231 14.412 71.2551 14.028 73.0898 14.028C74.9031 14.028 76.5244 14.412 77.9538 15.18C79.3831 15.9267 80.5031 16.9613 81.3138 18.284C82.1244 19.6067 82.5298 21.1427 82.5298 22.892C82.5298 24.5987 82.1244 26.124 81.3138 27.468C80.5031 28.7907 79.3831 29.836 77.9538 30.604C76.5244 31.372 74.9031 31.756 73.0898 31.756ZM73.0898 27.66C73.9218 27.66 74.6684 27.468 75.3298 27.084C75.9911 26.7 76.5138 26.156 76.8978 25.452C77.2818 24.7267 77.4738 23.8733 77.4738 22.892C77.4738 21.8893 77.2818 21.036 76.8978 20.332C76.5138 19.628 75.9911 19.084 75.3298 18.7C74.6684 18.316 73.9218 18.124 73.0898 18.124C72.2578 18.124 71.5111 18.316 70.8498 18.7C70.1884 19.084 69.6551 19.628 69.2498 20.332C68.8658 21.036 68.6738 21.8893 68.6738 22.892C68.6738 23.8733 68.8658 24.7267 69.2498 25.452C69.6551 26.156 70.1884 26.7 70.8498 27.084C71.5111 27.468 72.2578 27.66 73.0898 27.66Z" fill="#222222"/>
</svg>
