<svg width="95" height="30" viewBox="0 0 95 30" fill="none" xmlns="http://www.w3.org/2000/svg">
<path d="M5.05 23.5V21.8333H18.95V23.5H5.05ZM5.03325 19.9332L3.725 11.6917C3.65833 11.7139 3.59308 11.7292 3.52925 11.7375C3.46525 11.7458 3.39992 11.75 3.33325 11.75C2.96108 11.75 2.64583 11.6208 2.3875 11.3625C2.12917 11.1042 2 10.7889 2 10.4167C2 10.0444 2.12917 9.72633 2.3875 9.4625C2.64583 9.19867 2.96108 9.06675 3.33325 9.06675C3.70558 9.06675 4.02367 9.19867 4.2875 9.4625C4.55133 9.72633 4.68325 10.0444 4.68325 10.4167C4.68325 10.5444 4.66525 10.6694 4.62925 10.7917C4.59308 10.9139 4.54167 11.0222 4.475 11.1167L7.98325 12.6833L11.375 8.025C11.1583 7.91383 10.9833 7.75275 10.85 7.54175C10.7167 7.33058 10.65 7.09442 10.65 6.83325C10.65 6.46108 10.7819 6.14583 11.0458 5.8875C11.3098 5.62917 11.6278 5.5 12 5.5C12.3722 5.5 12.6903 5.62917 12.9543 5.8875C13.2181 6.14583 13.35 6.46108 13.35 6.83325C13.35 7.09442 13.2833 7.33058 13.15 7.54175C13.0167 7.75275 12.8417 7.91383 12.625 8.025L16.0168 12.6833L19.525 11.1167C19.4583 11.0222 19.4069 10.9139 19.3708 10.7917C19.3348 10.6694 19.3168 10.5444 19.3168 10.4167C19.3168 10.0444 19.4487 9.72633 19.7125 9.4625C19.9763 9.19867 20.2888 9.06675 20.65 9.06675C21.0222 9.06675 21.3403 9.19867 21.6043 9.4625C21.8681 9.72633 22 10.0444 22 10.4167C22 10.7889 21.8681 11.1042 21.6043 11.3625C21.3403 11.6208 21.0222 11.75 20.65 11.75C20.5833 11.75 20.5208 11.7431 20.4625 11.7292C20.4042 11.7152 20.3417 11.6972 20.275 11.675L18.9668 19.9332H5.03325ZM6.45 18.2668H17.55L18.3 13.4917L15.4583 14.7583L12 9.98325L8.54175 14.7583L5.7 13.4917L6.45 18.2668Z" fill="#D8A47A"/>
<path d="M33.992 24V7.2H37.88V20.832H46.304V24H33.992ZM54.2861 24.192C52.9101 24.192 51.6861 23.904 50.6141 23.328C49.5581 22.752 48.7181 21.968 48.0941 20.976C47.4861 19.968 47.1821 18.824 47.1821 17.544C47.1821 16.248 47.4861 15.104 48.0941 14.112C48.7181 13.104 49.5581 12.32 50.6141 11.76C51.6861 11.184 52.9101 10.896 54.2861 10.896C55.6461 10.896 56.8621 11.184 57.9341 11.76C59.0061 12.32 59.8461 13.096 60.4541 14.088C61.0621 15.08 61.3661 16.232 61.3661 17.544C61.3661 18.824 61.0621 19.968 60.4541 20.976C59.8461 21.968 59.0061 22.752 57.9341 23.328C56.8621 23.904 55.6461 24.192 54.2861 24.192ZM54.2861 21.12C54.9101 21.12 55.4701 20.976 55.9661 20.688C56.4621 20.4 56.8541 19.992 57.1421 19.464C57.4301 18.92 57.5741 18.28 57.5741 17.544C57.5741 16.792 57.4301 16.152 57.1421 15.624C56.8541 15.096 56.4621 14.688 55.9661 14.4C55.4701 14.112 54.9101 13.968 54.2861 13.968C53.6621 13.968 53.1021 14.112 52.6061 14.4C52.1101 14.688 51.7101 15.096 51.4061 15.624C51.1181 16.152 50.9741 16.792 50.9741 17.544C50.9741 18.28 51.1181 18.92 51.4061 19.464C51.7101 19.992 52.1101 20.4 52.6061 20.688C53.1021 20.976 53.6621 21.12 54.2861 21.12ZM69.9406 28.848C68.7246 28.848 67.5486 28.696 66.4126 28.392C65.2926 28.104 64.3566 27.664 63.6046 27.072L65.0926 24.384C65.6366 24.832 66.3246 25.184 67.1566 25.44C68.0046 25.712 68.8366 25.848 69.6526 25.848C70.9806 25.848 71.9406 25.552 72.5326 24.96C73.1406 24.368 73.4446 23.488 73.4446 22.32V20.376L73.6846 17.136L73.6366 13.872V11.088H77.1886V21.84C77.1886 24.24 76.5646 26.008 75.3166 27.144C74.0686 28.28 72.2766 28.848 69.9406 28.848ZM69.3646 23.376C68.1646 23.376 67.0766 23.12 66.1006 22.608C65.1406 22.08 64.3646 21.352 63.7726 20.424C63.1966 19.48 62.9086 18.384 62.9086 17.136C62.9086 15.872 63.1966 14.776 63.7726 13.848C64.3646 12.904 65.1406 12.176 66.1006 11.664C67.0766 11.152 68.1646 10.896 69.3646 10.896C70.4526 10.896 71.4126 11.12 72.2446 11.568C73.0766 12 73.7246 12.68 74.1886 13.608C74.6526 14.52 74.8846 15.696 74.8846 17.136C74.8846 18.56 74.6526 19.736 74.1886 20.664C73.7246 21.576 73.0766 22.256 72.2446 22.704C71.4126 23.152 70.4526 23.376 69.3646 23.376ZM70.1086 20.304C70.7646 20.304 71.3486 20.176 71.8606 19.92C72.3726 19.648 72.7726 19.272 73.0606 18.792C73.3486 18.312 73.4926 17.76 73.4926 17.136C73.4926 16.496 73.3486 15.944 73.0606 15.48C72.7726 15 72.3726 14.632 71.8606 14.376C71.3486 14.104 70.7646 13.968 70.1086 13.968C69.4526 13.968 68.8686 14.104 68.3566 14.376C67.8446 14.632 67.4366 15 67.1326 15.48C66.8446 15.944 66.7006 16.496 66.7006 17.136C66.7006 17.76 66.8446 18.312 67.1326 18.792C67.4366 19.272 67.8446 19.648 68.3566 19.92C68.8686 20.176 69.4526 20.304 70.1086 20.304ZM86.8173 24.192C85.4413 24.192 84.2173 23.904 83.1453 23.328C82.0893 22.752 81.2493 21.968 80.6253 20.976C80.0173 19.968 79.7133 18.824 79.7133 17.544C79.7133 16.248 80.0173 15.104 80.6253 14.112C81.2493 13.104 82.0893 12.32 83.1453 11.76C84.2173 11.184 85.4413 10.896 86.8173 10.896C88.1773 10.896 89.3933 11.184 90.4653 11.76C91.5373 12.32 92.3773 13.096 92.9853 14.088C93.5933 15.08 93.8973 16.232 93.8973 17.544C93.8973 18.824 93.5933 19.968 92.9853 20.976C92.3773 21.968 91.5373 22.752 90.4653 23.328C89.3933 23.904 88.1773 24.192 86.8173 24.192ZM86.8173 21.12C87.4413 21.12 88.0013 20.976 88.4973 20.688C88.9933 20.4 89.3853 19.992 89.6733 19.464C89.9613 18.92 90.1053 18.28 90.1053 17.544C90.1053 16.792 89.9613 16.152 89.6733 15.624C89.3853 15.096 88.9933 14.688 88.4973 14.4C88.0013 14.112 87.4413 13.968 86.8173 13.968C86.1933 13.968 85.6333 14.112 85.1373 14.4C84.6413 14.688 84.2413 15.096 83.9373 15.624C83.6493 16.152 83.5053 16.792 83.5053 17.544C83.5053 18.28 83.6493 18.92 83.9373 19.464C84.2413 19.992 84.6413 20.4 85.1373 20.688C85.6333 20.976 86.1933 21.12 86.8173 21.12Z" fill="#222222"/>
</svg>
