<svg width="25" height="24" viewBox="0 0 25 24" fill="none" xmlns="http://www.w3.org/2000/svg">
<path d="M19.9402 20.5C18.0557 20.5 16.1625 20.0618 14.2605 19.1855C12.3587 18.3092 10.6113 17.073 9.01825 15.477C7.42542 13.8808 6.19083 12.1333 5.3145 10.2345C4.43817 8.33583 4 6.44425 4 4.55975C4 4.25692 4.1 4.00458 4.3 3.80275C4.5 3.60092 4.75 3.5 5.05 3.5H8.3115C8.564 3.5 8.78675 3.58242 8.97975 3.74725C9.17275 3.91192 9.2955 4.11542 9.348 4.35775L9.92125 7.3C9.96092 7.573 9.95258 7.80758 9.89625 8.00375C9.83975 8.19992 9.73842 8.36467 9.59225 8.498L7.28275 10.7462C7.65442 11.4269 8.07908 12.0708 8.55675 12.678C9.03425 13.285 9.55125 13.8647 10.1077 14.4173C10.6564 14.9661 11.2397 15.4757 11.8577 15.9462C12.4757 16.4167 13.1431 16.8546 13.8598 17.2598L16.1038 14.9963C16.2603 14.8334 16.4498 14.7192 16.6723 14.6538C16.8946 14.5884 17.1257 14.5724 17.3655 14.6058L20.1423 15.1713C20.3948 15.2379 20.6008 15.3667 20.7605 15.5577C20.9202 15.7487 21 15.9654 21 16.2078V19.45C21 19.75 20.8991 20 20.6973 20.2C20.4954 20.4 20.2431 20.5 19.9402 20.5ZM6.573 9.327L8.35775 7.61925C8.38975 7.59358 8.41058 7.55833 8.42025 7.5135C8.42992 7.46867 8.42833 7.427 8.4155 7.3885L7.98075 5.15375C7.96792 5.10258 7.9455 5.06417 7.9135 5.0385C7.8815 5.01283 7.83983 5 7.7885 5H5.65C5.6115 5 5.57942 5.01283 5.55375 5.0385C5.52825 5.06417 5.5155 5.09625 5.5155 5.13475C5.56667 5.81808 5.6785 6.51225 5.851 7.21725C6.02333 7.92242 6.264 8.62567 6.573 9.327ZM15.273 17.9693C15.9358 18.2783 16.6272 18.5145 17.347 18.678C18.067 18.8413 18.7397 18.9384 19.3652 18.9693C19.4037 18.9693 19.4358 18.9564 19.4615 18.9307C19.4872 18.9051 19.5 18.873 19.5 18.8345V16.7308C19.5 16.6794 19.4872 16.6377 19.4615 16.6058C19.4358 16.5737 19.3974 16.5513 19.3462 16.5385L17.2462 16.1115C17.2077 16.0987 17.1741 16.0971 17.1453 16.1067C17.1164 16.1164 17.0859 16.1372 17.0538 16.1692L15.273 17.9693Z" fill="#D8A47A"/>
</svg>
