<svg width="14" height="13" viewBox="0 0 14 13" fill="none" xmlns="http://www.w3.org/2000/svg">
<path d="M6.34963 0.421436C6.59025 -0.140479 7.40978 -0.140479 7.6504 0.421437L9.07054 3.73796C9.17204 3.97485 9.40141 4.13671 9.66469 4.15721L13.3509 4.44426C13.9755 4.49289 14.2287 5.24994 13.7529 5.64586L10.9444 7.9826C10.7438 8.14954 10.6561 8.41145 10.7174 8.66097L11.5755 12.1549C11.7208 12.7469 11.0578 13.2148 10.5231 12.8976L7.36719 11.0252C7.14177 10.8915 6.85827 10.8915 6.63285 11.0252L3.4769 12.8976C2.94219 13.2148 2.27917 12.7469 2.42455 12.1549L3.2826 8.66097C3.34389 8.41145 3.25628 8.14954 3.05569 7.9826L0.247144 5.64586C-0.228703 5.24994 0.0245476 4.49289 0.649105 4.44426L4.33536 4.15721C4.59866 4.13671 4.82802 3.97485 4.92946 3.73796L6.34963 0.421436Z" fill="#D8A47A"/>
</svg>
