<svg width="32" height="32" viewBox="0 0 32 32" fill="none" xmlns="http://www.w3.org/2000/svg">
<mask id="mask0_40_1475" style="mask-type:luminance" maskUnits="userSpaceOnUse" x="0" y="0" width="32" height="32">
<path d="M31.9988 0H0V31.982H31.9988V0Z" fill="white"/>
</mask>
<g mask="url(#mask0_40_1475)">
<path d="M31.5089 3.43112C31.1184 2.95162 30.5322 2.6875 29.8582 2.6875C29.4946 2.6875 29.1093 2.76362 28.7132 2.91369L1.62224 13.1781C0.181802 13.7239 -0.0120728 14.5456 0.000552172 14.9868C0.0131147 15.4258 0.251302 16.2292 1.70118 16.6929L7.4465 18.7984L10.4744 25.7294C10.7788 26.6881 11.4148 27.3606 12.2266 27.5787C12.4137 27.629 12.6048 27.6537 12.7972 27.6537C13.4564 27.6537 14.1314 27.3634 14.7144 26.8159L17.223 24.4591L23.3439 28.6721C23.8952 29.0794 24.495 29.2946 25.0799 29.2945C26.267 29.2944 27.2138 28.4254 27.492 27.0806L31.9227 5.65163C32.1048 4.77094 31.9578 3.98237 31.5089 3.43112ZM9.35056 18.4731L17.1688 14.2805L11.72 19.2786C11.526 19.4565 11.4179 19.7072 11.4176 19.9684C11.4173 19.9781 11.4161 19.9874 11.416 19.9971L11.3972 23.1578L9.35056 18.4731ZM13.4306 25.4493C13.3728 25.5036 13.3149 25.5514 13.2576 25.5929L13.2806 21.7454L15.6425 23.3711L13.4306 25.4493ZM30.0865 5.27194L25.6559 26.7008C25.6112 26.9169 25.4656 27.4195 25.0798 27.4195C24.8996 27.4195 24.6761 27.3268 24.4504 27.1583C24.4408 27.151 24.4309 27.144 24.421 27.1372L17.6729 22.4925C17.672 22.4919 17.6711 22.4913 17.6702 22.4906L13.8549 19.8646L23.9334 10.6198C24.2816 10.3004 24.3377 9.77169 24.0641 9.38631C23.7906 9.00094 23.273 8.87944 22.8566 9.10275L8.07256 17.0309L2.32711 14.9254C2.32293 14.9239 2.31874 14.9224 2.31449 14.9209L29.3776 4.66706C29.6056 4.58062 29.7648 4.5625 29.8582 4.5625C29.9045 4.5625 30.0164 4.56763 30.055 4.61513C30.1046 4.67594 30.1669 4.88275 30.0865 5.27194Z" fill="#D8A47A"/>
</g>
</svg>
