<svg width="32" height="32" viewBox="0 0 32 32" fill="none" xmlns="http://www.w3.org/2000/svg">
<g clip-path="url(#clip0_40_1471)">
<path d="M27.3136 4.68625C24.2916 1.66425 20.2736 0 15.9999 0C15.9996 0 16 0 15.9998 0C11.7264 0 7.70813 1.66444 4.68625 4.68625C1.66431 7.70825 0 11.7262 0 16C0.000125 18.7206 0.6925 21.3945 2.00575 23.7595L0.034625 30.81C-0.0565 31.1361 0.03525 31.4859 0.274625 31.7253C0.514 31.9647 0.86375 32.0564 1.19 31.9653L8.24069 29.9941C10.6054 31.3076 13.2792 31.9999 15.9999 32C20.2738 32 24.2917 30.3357 27.3137 27.3137C30.3358 24.2917 32 20.2737 32 15.9999C31.9999 11.7261 30.3355 7.70825 27.3136 4.68625ZM15.9999 30.125C13.4783 30.1249 11.0031 29.4517 8.84169 28.1781C8.69613 28.0923 8.53163 28.0483 8.36575 28.0483C8.28113 28.0483 8.19625 28.0597 8.11331 28.0829L2.28869 29.7113L3.91706 23.8868C3.98575 23.6412 3.95138 23.3783 3.82194 23.1585C2.54831 20.9968 1.87513 18.5214 1.875 15.9999C1.875 12.227 3.34425 8.67994 6.01213 6.01206C8.68 3.34419 12.2271 1.875 15.9999 1.875C23.7882 1.875 30.1248 8.21144 30.125 15.9999C30.125 23.7885 23.7885 30.125 15.9999 30.125Z" fill="#D8A47A"/>
<path d="M22.9067 17.1989C22.3336 16.6258 21.5694 16.3102 20.7549 16.3102C19.9404 16.3102 19.1763 16.6258 18.6034 17.1989L18.1687 17.6334C18.0616 17.7405 17.9175 17.7996 17.7632 17.7996C17.6087 17.7996 17.4647 17.7405 17.3573 17.6332L14.3652 14.6412C14.2581 14.534 14.1991 14.3899 14.199 14.2355C14.199 14.081 14.2579 13.937 14.365 13.83L14.7997 13.3953C15.9862 12.2089 15.9862 10.2784 14.7998 9.09192L13.9304 8.22224C13.3572 7.6493 12.5931 7.33386 11.7786 7.33386C10.9642 7.33386 10.2001 7.64936 9.62693 8.22249L8.97868 8.87086C7.60812 10.2414 7.11062 12.2824 7.57768 14.618C8.01724 16.8158 9.27368 19.0407 11.1156 20.8828C13.4368 23.2037 16.3931 24.5895 19.0237 24.5897H19.0242C20.6818 24.5897 22.1009 24.0469 23.1277 23.0201L23.776 22.3718C24.9624 21.1854 24.9624 19.2547 23.776 18.0682L22.9067 17.1989ZM22.4502 21.046L21.8019 21.6943C21.1343 22.3619 20.1739 22.7147 19.0243 22.7147H19.024C16.8795 22.7145 14.4187 21.5341 12.4416 19.557C10.8584 17.9738 9.78406 16.0892 9.41637 14.2504C9.07618 12.5493 9.39162 11.1097 10.3046 10.1967L10.9528 9.54836C11.1717 9.32949 11.465 9.20892 11.7787 9.20892C12.0925 9.20892 12.3859 9.32949 12.6047 9.54824L13.474 10.4177C13.9294 10.8732 13.9294 11.6141 13.4741 12.0695L13.0393 12.5042C12.578 12.9654 12.324 13.5804 12.3241 14.2358C12.3241 14.891 12.5782 15.506 13.0395 15.9672L16.0316 18.9591C16.4929 19.4206 17.1079 19.6747 17.7632 19.6747C18.4184 19.6747 19.0333 19.4207 19.4946 18.9594L19.9292 18.5248C20.1481 18.3059 20.4414 18.1853 20.755 18.1853C21.0687 18.1853 21.3619 18.3059 21.5809 18.5249L22.4502 19.3942C22.9056 19.8495 22.9057 20.5905 22.4502 21.046Z" fill="#D8A47A"/>
</g>
<defs>
<clipPath id="clip0_40_1471">
<rect width="32" height="32" fill="white"/>
</clipPath>
</defs>
</svg>
