<svg width="20" height="20" viewBox="0 0 20 20" fill="none" xmlns="http://www.w3.org/2000/svg">
<path d="M19.3336 9.66703V10.3336C19.3336 10.7018 19.0352 11.0003 18.667 11.0003H11.0003V18.667C11.0003 19.0351 10.7018 19.3336 10.3336 19.3336H9.66702C9.29882 19.3336 9.00032 19.0351 9.00032 18.667V11.0003H1.33366C0.965473 11.0003 0.666992 10.7018 0.666992 10.3336V9.66703C0.666992 9.29883 0.965473 9.00033 1.33366 9.00033H9.00032V1.33365C9.00032 0.965463 9.29882 0.666992 9.66702 0.666992H10.3336C10.7018 0.666992 11.0003 0.965463 11.0003 1.33365V9.00033H18.667C19.0352 9.00033 19.3336 9.29883 19.3336 9.66703Z" fill="#D8A47A"/>
</svg>
