<svg width="20" height="28" viewBox="0 0 20 28" fill="none" xmlns="http://www.w3.org/2000/svg">
<path d="M10.3335 0.666016C5.00817 0.666016 0.675781 4.99842 0.675781 10.3236C0.675781 16.9324 9.31839 26.6344 9.68639 27.0441C10.032 27.4291 10.6355 27.4284 10.9805 27.0441C11.3484 26.6344 19.9911 16.9324 19.9911 10.3236C19.9909 4.99842 15.6587 0.666016 10.3335 0.666016ZM10.3335 15.1827C7.65415 15.1827 5.47447 13.0029 5.47447 10.3236C5.47447 7.64435 7.65421 5.46466 10.3335 5.46466C13.0127 5.46466 15.1924 7.6444 15.1924 10.3237C15.1924 13.0029 13.0127 15.1827 10.3335 15.1827Z" fill="#D8A47A"/>
</svg>
