<svg width="34" height="34" viewBox="0 0 34 34" fill="none" xmlns="http://www.w3.org/2000/svg">
<path d="M17 33.6663C14.9722 33.4163 12.9583 32.8677 10.9583 32.0205C8.95833 31.1733 7.17361 29.958 5.60416 28.3747C4.03472 26.7913 2.76388 24.7913 1.79166 22.3747C0.819439 19.958 0.333328 17.0552 0.333328 13.6663V11.9997H1.99999C3.41666 11.9997 4.87499 12.1802 6.37499 12.5413C7.87499 12.9025 9.27777 13.4441 10.5833 14.1663C10.9167 11.7775 11.6736 9.32606 12.8542 6.81217C14.0347 4.29829 15.4167 2.13856 17 0.333008C18.5833 2.13856 19.9653 4.29829 21.1458 6.81217C22.3264 9.32606 23.0833 11.7775 23.4167 14.1663C24.7222 13.4441 26.125 12.9025 27.625 12.5413C29.125 12.1802 30.5833 11.9997 32 11.9997H33.6667V13.6663C33.6667 17.0552 33.1805 19.958 32.2083 22.3747C31.2361 24.7913 29.9653 26.7913 28.3958 28.3747C26.8264 29.958 25.0486 31.1733 23.0625 32.0205C21.0764 32.8677 19.0555 33.4163 17 33.6663ZM16.9167 30.2497C16.6111 25.6386 15.243 22.1525 12.8125 19.7913C10.3819 17.4302 7.36111 15.9719 3.74999 15.4163C4.05555 20.1663 5.46527 23.708 7.97916 26.0413C10.493 28.3747 13.4722 29.7775 16.9167 30.2497ZM17 19.6663C17.4167 19.0552 17.9236 18.4233 18.5208 17.7705C19.118 17.1177 19.6944 16.5552 20.25 16.083C20.1944 14.4997 19.8819 12.8469 19.3125 11.1247C18.743 9.40245 17.9722 7.7219 17 6.08301C16.0278 7.7219 15.2569 9.40245 14.6875 11.1247C14.118 12.8469 13.8055 14.4997 13.75 16.083C14.3055 16.5552 14.8889 17.1177 15.5 17.7705C16.1111 18.4233 16.6111 19.0552 17 19.6663ZM20.25 29.4997C21.2778 29.1663 22.3472 28.6802 23.4583 28.0413C24.5694 27.4025 25.6042 26.5344 26.5625 25.4372C27.5208 24.34 28.3403 22.9719 29.0208 21.333C29.7014 19.6941 30.1111 17.7219 30.25 15.4163C27.6389 15.8052 25.3472 16.6733 23.375 18.0205C21.4028 19.3677 19.8889 21.083 18.8333 23.1663C19.1667 24.0552 19.4514 25.0275 19.6875 26.083C19.9236 27.1386 20.1111 28.2775 20.25 29.4997Z" fill="#D8A47A"/>
</svg>
