<svg xmlns="http://www.w3.org/2000/svg" xmlns:xlink="http://www.w3.org/1999/xlink"><symbol id="chevron" viewBox="0 0 25 24"><path d="M14.0762 12L9.4762 16.6L10.8762 18L16.8762 12L10.8762 6L9.4762 7.4L14.0762 12Z"/></symbol><use xlink:href="#chevron" width="25" height="24" y="0"/><view id="chevron-view" viewBox="0 0 25 24"/><symbol id="cross" viewBox="0 0 20 20"><path d="M19.3336 9.66703V10.3336C19.3336 10.7018 19.0352 11.0003 18.667 11.0003H11.0003V18.667C11.0003 19.0351 10.7018 19.3336 10.3336 19.3336H9.66702C9.29882 19.3336 9.00032 19.0351 9.00032 18.667V11.0003H1.33366C0.965473 11.0003 0.666992 10.7018 0.666992 10.3336V9.66703C0.666992 9.29883 0.965473 9.00033 1.33366 9.00033H9.00032V1.33365C9.00032 0.965463 9.29882 0.666992 9.66702 0.666992H10.3336C10.7018 0.666992 11.0003 0.965463 11.0003 1.33365V9.00033H18.667C19.0352 9.00033 19.3336 9.29883 19.3336 9.66703Z"/></symbol><use xlink:href="#cross" width="20" height="20" y="24"/><view id="cross-view" viewBox="0 24 20 20"/><symbol id="icon-feature" viewBox="0 0 34 34"><path d="M17 33.6663C14.9722 33.4163 12.9583 32.8677 10.9583 32.0205C8.95833 31.1733 7.17361 29.958 5.60416 28.3747C4.03472 26.7913 2.76388 24.7913 1.79166 22.3747C0.819439 19.958 0.333328 17.0552 0.333328 13.6663V11.9997H1.99999C3.41666 11.9997 4.87499 12.1802 6.37499 12.5413C7.87499 12.9025 9.27777 13.4441 10.5833 14.1663C10.9167 11.7775 11.6736 9.32606 12.8542 6.81217C14.0347 4.29829 15.4167 2.13856 17 0.333008C18.5833 2.13856 19.9653 4.29829 21.1458 6.81217C22.3264 9.32606 23.0833 11.7775 23.4167 14.1663C24.7222 13.4441 26.125 12.9025 27.625 12.5413C29.125 12.1802 30.5833 11.9997 32 11.9997H33.6667V13.6663C33.6667 17.0552 33.1805 19.958 32.2083 22.3747C31.2361 24.7913 29.9653 26.7913 28.3958 28.3747C26.8264 29.958 25.0486 31.1733 23.0625 32.0205C21.0764 32.8677 19.0555 33.4163 17 33.6663ZM16.9167 30.2497C16.6111 25.6386 15.243 22.1525 12.8125 19.7913C10.3819 17.4302 7.36111 15.9719 3.74999 15.4163C4.05555 20.1663 5.46527 23.708 7.97916 26.0413C10.493 28.3747 13.4722 29.7775 16.9167 30.2497ZM17 19.6663C17.4167 19.0552 17.9236 18.4233 18.5208 17.7705C19.118 17.1177 19.6944 16.5552 20.25 16.083C20.1944 14.4997 19.8819 12.8469 19.3125 11.1247C18.743 9.40245 17.9722 7.7219 17 6.08301C16.0278 7.7219 15.2569 9.40245 14.6875 11.1247C14.118 12.8469 13.8055 14.4997 13.75 16.083C14.3055 16.5552 14.8889 17.1177 15.5 17.7705C16.1111 18.4233 16.6111 19.0552 17 19.6663ZM20.25 29.4997C21.2778 29.1663 22.3472 28.6802 23.4583 28.0413C24.5694 27.4025 25.6042 26.5344 26.5625 25.4372C27.5208 24.34 28.3403 22.9719 29.0208 21.333C29.7014 19.6941 30.1111 17.7219 30.25 15.4163C27.6389 15.8052 25.3472 16.6733 23.375 18.0205C21.4028 19.3677 19.8889 21.083 18.8333 23.1663C19.1667 24.0552 19.4514 25.0275 19.6875 26.083C19.9236 27.1386 20.1111 28.2775 20.25 29.4997Z"/></symbol><use xlink:href="#icon-feature" width="34" height="34" y="44"/><view id="icon-feature-view" viewBox="0 44 34 34"/><symbol id="icon-mail" viewBox="0 0 27 22"><path fill-rule="evenodd" clip-rule="evenodd" d="M2.99998 0.333984H24.3333C25.8061 0.333984 27 1.52789 27 3.00065V19.0007C27 20.4735 25.8061 21.6673 24.3333 21.6673H2.99998C1.52722 21.6673 0.333313 20.4735 0.333313 19.0007V3.00065C0.333313 1.52789 1.52722 0.333984 2.99998 0.333984ZM15.8666 15.6007L24.3333 9.66732V6.86732L14.5333 13.734C14.0121 14.0957 13.3212 14.0957 12.8 13.734L2.99998 6.86732V9.66732L11.4666 15.6007C12.788 16.5243 14.5453 16.5243 15.8666 15.6007Z"/></symbol><use xlink:href="#icon-mail" width="27" height="22" y="78"/><view id="icon-mail-view" viewBox="0 78 27 22"/><symbol id="icon-phone" viewBox="0 0 24 24"><path d="M18.6667 24.0004C16.4617 23.9984 14.2911 23.4534 12.3467 22.4137L11.7467 22.0804C7.601 19.8514 4.20225 16.4526 1.97333 12.307L1.64 11.707C0.573094 9.75158 0.00950749 7.56129 8.29008e-07 5.33369V4.44036C-0.000559171 3.72964 0.282614 3.04809 0.786667 2.54702L3.04 0.29369C3.25884 0.0731566 3.56775 -0.0331367 3.87595 0.00603667C4.18415 0.04521 4.45664 0.225423 4.61333 0.49369L7.61333 5.64036C7.91671 6.16421 7.82911 6.8267 7.4 7.25369L4.88 9.77372C4.67072 9.98065 4.62196 10.3004 4.76 10.5604L5.22667 11.4404C6.90272 14.5449 9.4524 17.09 12.56 18.7604L13.44 19.2404C13.7 19.3784 14.0197 19.3296 14.2267 19.1204L16.7467 16.6004C17.1736 16.1713 17.8361 16.0837 18.36 16.387L23.5067 19.387C23.7749 19.5437 23.9552 19.8162 23.9943 20.1244C24.0335 20.4326 23.9272 20.7416 23.7067 20.9604L21.4533 23.2137C20.9523 23.7177 20.2707 24.0009 19.56 24.0004H18.6667Z"/></symbol><use xlink:href="#icon-phone" width="24" height="24" y="100"/><view id="icon-phone-view" viewBox="0 100 24 24"/><symbol id="icon-pin" viewBox="0 0 20 28"><path d="M10.3335 0.666016C5.00817 0.666016 0.675781 4.99842 0.675781 10.3236C0.675781 16.9324 9.31839 26.6344 9.68639 27.0441C10.032 27.4291 10.6355 27.4284 10.9805 27.0441C11.3484 26.6344 19.9911 16.9324 19.9911 10.3236C19.9909 4.99842 15.6587 0.666016 10.3335 0.666016ZM10.3335 15.1827C7.65415 15.1827 5.47447 13.0029 5.47447 10.3236C5.47447 7.64435 7.65421 5.46466 10.3335 5.46466C13.0127 5.46466 15.1924 7.6444 15.1924 10.3237C15.1924 13.0029 13.0127 15.1827 10.3335 15.1827Z"/></symbol><use xlink:href="#icon-pin" width="20" height="28" y="124"/><view id="icon-pin-view" viewBox="0 124 20 28"/></svg>