<svg width="300" height="84" viewBox="0 0 300 84" fill="none" xmlns="http://www.w3.org/2000/svg">
<path fill-rule="evenodd" clip-rule="evenodd" d="M79.2765 17.1113L54.2114 66.1113H30.668L41.1578 45.8036H40.6871C32.0331 57.0376 19.1211 64.4331 0.723511 66.1113V46.0848C0.723511 46.0848 12.4929 45.3895 19.4118 38.1153H0.723511V17.1117H21.7271V34.3869L22.1985 34.3849L30.7815 17.1117H46.6659V34.2773L47.1371 34.2766L56.0421 17.1113H79.2765Z" fill="#CDCDCD"/>
<path d="M219.103 60.1113H225.897V21.1113H219.103V60.1113Z" fill="#CDCDCD"/>
<path fill-rule="evenodd" clip-rule="evenodd" d="M181.18 61.1554C182.713 61.7926 184.272 62.1113 185.856 62.1113C188.474 62.1113 190.817 61.4741 192.883 60.1994C194.95 58.925 196.552 57.1684 197.689 54.9293C198.826 52.6731 199.394 50.1152 199.394 47.2562C199.394 44.3971 198.808 41.8396 197.637 39.5833C196.466 37.3271 194.838 35.5789 192.754 34.3388C190.67 33.0815 188.302 32.4615 185.649 32.4787C183.962 32.4787 182.343 32.8059 180.793 33.4604C179.243 34.1149 177.951 35.045 176.917 36.2506C176.838 36.3424 176.76 36.4351 176.685 36.5287V21.1113H169.606V61.5689H176.633L176.619 57.7894C176.801 58.0122 176.995 58.2299 177.202 58.4428C178.321 59.5969 179.647 60.5009 181.18 61.1554ZM188.414 54.6193C187.26 55.3255 185.942 55.6786 184.461 55.6786C182.997 55.6786 181.654 55.3167 180.431 54.5935C179.208 53.8527 178.235 52.8454 177.511 51.5707C176.805 50.2963 176.452 48.8493 176.452 47.2303C176.435 45.6114 176.779 44.1647 177.486 42.8902C178.209 41.5984 179.182 40.5995 180.405 39.8933C181.628 39.17 182.98 38.8169 184.461 38.8341C185.942 38.8169 187.26 39.1613 188.414 39.8675C189.585 40.5564 190.481 41.5468 191.101 42.8385C191.738 44.113 192.057 45.577 192.057 47.2303C192.057 48.8839 191.738 50.3479 191.101 51.6223C190.481 52.897 189.585 53.8958 188.414 54.6193Z" fill="#CDCDCD"/>
<path d="M90.0625 23.1113H97.9049L104.92 48.7314L112.383 23.1113H118.919L127.012 48.2173L133.749 23.1113H140.937L130.33 60.1113H123.569L115.338 35.5847L107.783 60.1113H100.946L90.0625 23.1113Z" fill="#CDCDCD"/>
<path fill-rule="evenodd" clip-rule="evenodd" d="M152.536 62.1108C149.798 62.1277 147.329 61.5229 145.129 60.2969C142.945 59.0538 141.223 57.3321 139.963 55.1318C138.721 52.9315 138.099 50.4204 138.099 47.5984C138.099 44.8605 138.737 42.3831 140.014 40.166C141.29 37.9488 143.02 36.2187 145.204 34.9758C147.388 33.7328 149.823 33.1113 152.511 33.1113C155.534 33.1113 158.179 33.7832 160.447 35.1269C162.731 36.4707 164.436 38.3771 165.562 40.8462C166.704 43.2985 167.115 46.1119 166.796 49.2866H145.215C145.275 50.5513 145.591 51.702 146.162 52.7383C146.8 53.8804 147.69 54.7706 148.832 55.4089C149.974 56.0472 151.251 56.3664 152.662 56.3664C153.737 56.3495 154.736 56.1648 155.66 55.8122C156.584 55.4427 157.365 54.9472 158.003 54.3255C158.658 53.7041 159.12 52.9988 159.389 52.2093H166.595C166.158 54.1409 165.285 55.8626 163.975 57.3742C162.664 58.8692 161.018 60.0365 159.036 60.8763C157.054 61.7161 154.887 62.1277 152.536 62.1108ZM146.187 42.3579C145.784 43.0598 145.505 43.8156 145.35 44.6255H159.656C159.552 43.6025 159.236 42.6702 158.709 41.8288C158.104 40.8378 157.281 40.0736 156.24 39.5361C155.198 38.9818 154.022 38.7046 152.712 38.7046C151.318 38.7046 150.05 39.0238 148.908 39.662C147.766 40.3003 146.859 41.199 146.187 42.3579Z" fill="#CDCDCD"/>
<path d="M204.472 32.9272C204.472 30.6424 204.992 28.6134 206.032 26.8402C207.072 25.0499 208.53 23.6603 210.405 22.6714C212.298 21.6654 214.506 21.1454 217.029 21.1113V27.3261C215.853 27.3432 214.847 27.5904 214.012 28.0678C213.193 28.5282 212.562 29.2017 212.119 30.0883C211.711 30.9045 211.491 31.8508 211.458 32.9272H216.876V38.8351H211.454V61.1113H204.472V38.8351H199.971V32.9272H204.472Z" fill="#CDCDCD"/>
<path fill-rule="evenodd" clip-rule="evenodd" d="M243.462 62.1113C240.655 62.1113 238.141 61.4977 235.922 60.2706C233.72 59.0264 231.988 57.3118 230.727 55.1261C229.483 52.9239 228.861 50.4274 228.861 47.6364C228.861 44.8291 229.483 42.3241 230.727 40.1218C231.988 37.9026 233.72 36.1795 235.922 34.9522C238.141 33.725 240.655 33.1113 243.462 33.1113C246.286 33.1113 248.808 33.725 251.027 34.9522C253.263 36.1795 255.003 37.8942 256.247 40.0966C257.491 42.2989 258.122 44.8122 258.139 47.6364C258.122 50.4274 257.491 52.9239 256.247 55.1261C255.02 57.3118 253.289 59.0264 251.052 60.2706C248.817 61.4977 246.286 62.1113 243.462 62.1113ZM243.462 55.7819C244.942 55.7819 246.253 55.4456 247.396 54.7732C248.539 54.0839 249.422 53.1256 250.044 51.8983C250.666 50.6543 250.977 49.2336 250.977 47.6364C250.977 46.0226 250.666 44.5936 250.044 43.3496C249.422 42.1056 248.539 41.1473 247.396 40.4748C246.253 39.7856 244.942 39.4409 243.462 39.4409C242 39.4409 240.697 39.7856 239.553 40.4748C238.427 41.1473 237.553 42.1056 236.931 43.3496C236.309 44.5936 236.006 46.0226 236.023 47.6364C236.023 49.2336 236.334 50.6543 236.956 51.8983C237.595 53.1256 238.469 54.0839 239.579 54.7732C240.705 55.4456 242 55.7819 243.462 55.7819Z" fill="#CDCDCD"/>
<path d="M265.927 33.1113H258.203L266.562 61.1113H273.321L278.819 43.2277L284.754 61.1113H291.411L299.797 33.1113H292.81L288.053 50.5396L282.797 33.1113H276.04L270.809 50.9234L265.927 33.1113Z" fill="#CDCDCD"/>
</svg>
